<?xml version="1.0" encoding="UTF-8"?>
<svg xmlns="http://www.w3.org/2000/svg" xmlns:xlink="http://www.w3.org/1999/xlink" viewBox="0 0 64 64" width="64px" height="64px">
<g id="surface55917985">
<path style=" stroke:none;fill-rule:nonzero;fill:rgb(100%,100%,100%);fill-opacity:1;" d="M 13 6 C 9.132812 6 6 9.132812 6 13 L 6 51 C 6 54.867188 9.132812 58 13 58 L 51 58 C 54.867188 58 58 54.867188 58 51 L 58 13 C 58 9.132812 54.867188 6 51 6 Z M 13 8 L 51 8 C 53.761719 8 56 10.238281 56 13 L 56 51 C 56 53.761719 53.761719 56 51 56 L 13 56 C 10.238281 56 8 53.761719 8 51 L 8 13 C 8 10.238281 10.238281 8 13 8 Z M 12 12.007812 C 11.449219 12.015625 11.007812 12.46875 11.015625 13.023438 L 11.015625 15.023438 C 11.011719 15.382812 11.199219 15.71875 11.511719 15.898438 C 11.824219 16.082031 12.207031 16.082031 12.519531 15.898438 C 12.832031 15.71875 13.019531 15.382812 13.015625 15.023438 L 13.015625 13.023438 C 13.019531 12.75 12.914062 12.492188 12.722656 12.300781 C 12.53125 12.109375 12.269531 12.003906 12 12.007812 Z M 16.996094 12.007812 C 16.441406 12.015625 16.003906 12.46875 16.011719 13.023438 L 16.011719 15.023438 C 16.003906 15.382812 16.195312 15.71875 16.503906 15.898438 C 16.816406 16.082031 17.203125 16.082031 17.515625 15.898438 C 17.824219 15.71875 18.015625 15.382812 18.011719 15.023438 L 18.011719 13.023438 C 18.011719 12.75 17.90625 12.492188 17.714844 12.300781 C 17.523438 12.109375 17.265625 12.003906 16.996094 12.007812 Z M 21.988281 12.007812 C 21.4375 12.015625 20.996094 12.46875 21.003906 13.023438 L 21.003906 15.023438 C 21 15.382812 21.1875 15.71875 21.5 15.898438 C 21.8125 16.082031 22.195312 16.082031 22.507812 15.898438 C 22.820312 15.71875 23.007812 15.382812 23.003906 15.023438 L 23.003906 13.023438 C 23.007812 12.75 22.902344 12.492188 22.710938 12.300781 C 22.519531 12.109375 22.257812 12.003906 21.988281 12.007812 Z M 26.980469 12.007812 C 26.429688 12.015625 25.988281 12.46875 25.996094 13.023438 L 25.996094 15.023438 C 25.992188 15.382812 26.179688 15.71875 26.492188 15.898438 C 26.804688 16.082031 27.1875 16.082031 27.5 15.898438 C 27.8125 15.71875 28 15.382812 27.996094 15.023438 L 27.996094 13.023438 C 28 12.75 27.894531 12.492188 27.703125 12.300781 C 27.511719 12.109375 27.25 12.003906 26.980469 12.007812 Z M 31.976562 12.007812 C 31.421875 12.015625 30.980469 12.46875 30.988281 13.023438 L 30.988281 15.023438 C 30.984375 15.382812 31.171875 15.71875 31.484375 15.898438 C 31.796875 16.082031 32.179688 16.082031 32.492188 15.898438 C 32.804688 15.71875 32.992188 15.382812 32.988281 15.023438 L 32.988281 13.023438 C 32.992188 12.75 32.886719 12.492188 32.695312 12.300781 C 32.503906 12.109375 32.246094 12.003906 31.976562 12.007812 Z M 36.96875 12.007812 C 36.417969 12.015625 35.976562 12.46875 35.984375 13.023438 L 35.984375 15.023438 C 35.976562 15.382812 36.167969 15.71875 36.476562 15.898438 C 36.789062 16.082031 37.175781 16.082031 37.488281 15.898438 C 37.796875 15.71875 37.988281 15.382812 37.984375 15.023438 L 37.984375 13.023438 C 37.984375 12.75 37.878906 12.492188 37.691406 12.300781 C 37.5 12.109375 37.238281 12.003906 36.96875 12.007812 Z M 41.960938 12.007812 C 41.410156 12.015625 40.96875 12.46875 40.976562 13.023438 L 40.976562 15.023438 C 40.972656 15.382812 41.160156 15.71875 41.472656 15.898438 C 41.785156 16.082031 42.167969 16.082031 42.480469 15.898438 C 42.792969 15.71875 42.980469 15.382812 42.976562 15.023438 L 42.976562 13.023438 C 42.980469 12.75 42.875 12.492188 42.683594 12.300781 C 42.492188 12.109375 42.230469 12.003906 41.960938 12.007812 Z M 46.953125 12.007812 C 46.402344 12.015625 45.960938 12.46875 45.96875 13.023438 L 45.96875 15.023438 C 45.964844 15.382812 46.152344 15.71875 46.464844 15.898438 C 46.777344 16.082031 47.160156 16.082031 47.472656 15.898438 C 47.785156 15.71875 47.972656 15.382812 47.96875 15.023438 L 47.96875 13.023438 C 47.972656 12.75 47.867188 12.492188 47.675781 12.300781 C 47.484375 12.109375 47.222656 12.003906 46.953125 12.007812 Z M 51.945312 12.007812 C 51.394531 12.015625 50.957031 12.46875 50.964844 13.023438 L 50.964844 15.023438 C 50.957031 15.382812 51.148438 15.71875 51.457031 15.898438 C 51.769531 16.082031 52.15625 16.082031 52.46875 15.898438 C 52.777344 15.71875 52.96875 15.382812 52.964844 15.023438 L 52.964844 13.023438 C 52.964844 12.75 52.859375 12.492188 52.667969 12.300781 C 52.476562 12.109375 52.21875 12.003906 51.945312 12.007812 Z M 19.5 18 C 18.082031 18 16.894531 18.566406 16.128906 19.429688 C 15.359375 20.292969 15 21.402344 15 22.5 C 15 23.597656 15.359375 24.707031 16.128906 25.570312 C 16.894531 26.433594 18.082031 27 19.5 27 C 20.917969 27 22.105469 26.433594 22.875 25.570312 C 23.640625 24.707031 24 23.597656 24 22.5 C 24 21.402344 23.640625 20.292969 22.875 19.429688 C 22.105469 18.566406 20.917969 18 19.5 18 Z M 19.5 20 C 20.417969 20 20.976562 20.308594 21.378906 20.757812 C 21.777344 21.207031 22 21.847656 22 22.5 C 22 23.152344 21.777344 23.792969 21.378906 24.242188 C 20.976562 24.691406 20.417969 25 19.5 25 C 18.582031 25 18.023438 24.691406 17.625 24.242188 C 17.222656 23.792969 17 23.152344 17 22.5 C 17 21.847656 17.222656 21.207031 17.625 20.757812 C 18.023438 20.308594 18.582031 20 19.5 20 Z M 41.230469 27 C 38.578125 27 36.394531 28.046875 34.773438 29.066406 C 34.582031 28.179688 33.890625 27.449219 32.945312 27.449219 L 27.976562 27.449219 C 26.894531 27.449219 26 28.351562 26 29.429688 L 26 50 C 26 51.082031 26.894531 51.980469 27.976562 51.980469 L 33.25 51.980469 C 34.332031 51.980469 35.226562 51.082031 35.226562 50 L 35.226562 39.636719 C 35.226562 38.277344 35.613281 37.179688 36.152344 36.460938 C 36.691406 35.742188 37.339844 35.40625 38.023438 35.40625 C 38.675781 35.40625 39.136719 35.707031 39.578125 36.460938 C 40.019531 37.21875 40.3125 38.410156 40.3125 39.800781 L 40.3125 50.019531 C 40.3125 51.097656 41.210938 52 42.292969 52 L 47.5625 52 C 48.644531 52 49.539062 51.097656 49.539062 50.019531 L 49.539062 38.066406 C 49.539062 35.351562 49.003906 32.667969 47.683594 30.566406 C 46.363281 28.464844 44.148438 27 41.230469 27 Z M 16 28 C 15.449219 28 15 28.449219 15 29 L 15 51 C 15 51.550781 15.449219 52 16 52 L 23 52 C 23.550781 52 24 51.550781 24 51 L 24 29 C 24 28.449219 23.550781 28 23 28 Z M 41.230469 29 C 43.519531 29 44.957031 29.988281 45.988281 31.628906 C 47.023438 33.273438 47.539062 35.621094 47.539062 38.066406 L 47.539062 50 L 42.3125 50 L 42.3125 39.800781 C 42.3125 38.140625 41.996094 36.632812 41.304688 35.453125 C 40.613281 34.273438 39.433594 33.40625 38.023438 33.40625 C 36.648438 33.40625 35.398438 34.136719 34.554688 35.257812 C 33.707031 36.382812 33.226562 37.902344 33.226562 39.636719 L 33.226562 49.980469 L 28.003906 49.980469 L 28.003906 29.449219 L 32.925781 29.449219 L 32.925781 30.730469 C 32.925781 31.121094 33.152344 31.476562 33.503906 31.636719 C 33.855469 31.800781 34.273438 31.746094 34.570312 31.492188 C 35.515625 30.691406 38.523438 29 41.230469 29 Z M 17 30 L 22 30 L 22 50 L 17 50 Z M 17 30 "/>
</g>
</svg>
